<?xml version="1.0" encoding="UTF-8"?>
<svg width="1440px" height="615px" viewBox="0 0 1440 615" version="1.1" xmlns="http://www.w3.org/2000/svg" xmlns:xlink="http://www.w3.org/1999/xlink">
    <!-- Generator: Sketch 51.2 (57519) - http://www.bohemiancoding.com/sketch -->
    <title>background</title>
    <desc>Created with Sketch.</desc>
    <defs>
        <path d="M4.90809624,3.83566794 C17.6310324,5.94522265 26.8373685,7 32.5271046,7 C38.2245556,7 47.4338162,5.94236028 60.1548865,3.82708085 L60.1548859,3.82707686 C62.3341053,3.46471285 64.3944657,4.93756517 64.7568298,7.1167846 C64.8014221,7.38495819 64.8185593,7.65697918 64.8079755,7.92862884 L62.1497769,76.155726 C62.0661306,78.3026484 60.3013606,80 58.1528094,80 L7.79760136,80 C5.66910847,80 3.91340982,78.3331391 3.80298766,76.2075124 L0.259175915,7.9893142 C0.144569717,5.78314488 1.84011663,3.90178461 4.04628595,3.78717841 C4.33446413,3.77220811 4.62341618,3.78846593 4.90809624,3.83566794 Z" id="path-1"></path>
        <path d="M82.2409802,255 L445.000188,255 C447.209327,255 449.000188,256.790861 449.000188,259 C449.000188,259.069591 448.998372,259.139171 448.994741,259.208667 L438.495474,460.197764 C438.384229,462.327341 436.62192,463.995196 434.489448,463.98908 L93.397376,463.010818 C91.2793106,463.004744 89.5331505,461.348613 89.4150689,459.233833 L78.247201,259.222998 C78.1240427,257.017295 79.8122789,255.129379 82.0179823,255.006221 C82.0922426,255.002074 82.1666042,255 82.2409802,255 Z" id="path-3"></path>
        <filter x="-1.9%" y="-2.4%" width="103.8%" height="106.7%" filterUnits="objectBoundingBox" id="filter-4">
            <feOffset dx="0" dy="2" in="SourceAlpha" result="shadowOffsetOuter1"></feOffset>
            <feGaussianBlur stdDeviation="2" in="shadowOffsetOuter1" result="shadowBlurOuter1"></feGaussianBlur>
            <feColorMatrix values="0 0 0 0 0.751659345   0 0 0 0 0.804156037   0 0 0 0 0.804156037  0 0 0 1 0" type="matrix" in="shadowBlurOuter1"></feColorMatrix>
        </filter>
    </defs>
    <g id="background" stroke="none" stroke-width="1" fill="none" fill-rule="evenodd">
        <rect fill="transparent" x="0" y="0" width="1440" height="615"></rect>
        <g id="Group-5" transform="translate(1048.500000, 540.000000) scale(-1, 1) translate(-1048.500000, -540.000000) translate(1016.000000, 500.000000)" fill="#FAFAFB">
            <g id="Group-4">
                <mask id="mask-2" fill="white">
                    <use xlink:href="#path-1"></use>
                </mask>
                <path stroke="#47556D" d="M4.82630926,4.32893347 C4.57721411,4.2876317 4.32438099,4.27340611 4.072225,4.28650512 C2.14182621,4.38678558 0.658222171,6.03297636 0.758502624,7.96337508 L4.30231437,76.1815733 C4.39893377,78.0414967 5.93517008,79.5 7.79760136,79.5 L58.1528094,79.5 C60.0327917,79.5 61.5769654,78.0148173 61.650156,76.1362603 L64.3083546,7.90916309 C64.3176153,7.67146961 64.3026203,7.4334512 64.263602,7.19879927 C63.9465334,5.29198161 62.1437177,4.00323656 60.2369012,4.32030857 C47.4906691,6.43977195 38.2588709,7.5 32.5271046,7.5 C26.8031373,7.5 17.5743441,6.44264972 4.82630926,4.32893347 Z"></path>
                <g id="backtrack_dragon_svg_by_chaosdata-d3f2yju" mask="url(#mask-2)">
                    <g transform="translate(77.500000, 50.000000) scale(-1, 1) translate(-77.500000, -50.000000) translate(3.000000, -7.000000)" id="g2830">
                        <g>
                            <g id="#454d4cff" fill="#000000" fill-rule="nonzero">
                                <path d="M0.0955906942,0.360341065 C2.87181757,0.0161951041 5.67672165,0.155203081 8.46660434,0.134959201 C18.6770561,0.0458861282 28.9025292,0.47775557 39.0487986,1.63435592 C41.1845678,1.88807922 43.3271649,2.10131475 45.4397193,2.50349317 C47.6478643,2.9879967 49.9038047,3.21202897 52.1133153,3.69518291 C57.1973747,4.6250518 62.2281763,5.85992849 67.141538,7.4618942 C68.5030226,7.75340607 69.7224868,8.42820207 71.0266169,8.88706335 C73.8164996,9.98968002 76.5326409,11.2987843 79.0398483,12.9425873 C78.4704009,16.883396 78.1972846,21.196692 80.1650873,24.8284441 C81.242531,26.9581003 83.088797,28.7071715 85.3420062,29.5749592 C88.6084768,30.9663886 92.2573101,30.5061777 95.7081342,30.6775759 C98.8407778,31.2376566 101.775412,32.5049234 104.740089,33.6061905 C105.91722,34.0583038 107.073868,34.5603521 108.25373,35.007067 C108.268751,34.6251325 108.286504,34.2458971 108.305622,33.8653122 C109.631602,35.4024975 111.402761,36.5294068 113.289994,37.2770808 C113.183479,36.627927 113.057845,35.982822 112.937674,35.3363675 C113.855345,36.18796 114.715661,37.0989346 115.649719,37.9343321 C116.504572,38.6266728 117.455017,39.1962006 118.413655,39.7387366 C118.410924,38.8439571 118.24842,37.9653727 118.128249,37.0827395 C119.559378,38.688754 121.117506,40.1800532 122.519958,41.8144091 C123.635638,41.8319538 124.751318,41.8454497 125.871095,41.864344 C126.832464,43.5000495 127.924929,45.0547795 128.996911,46.6216558 C129.252326,47.0519165 129.4268,47.3385996 129.61394,47.8326542 C129.877982,48.413609 128.594313,48.0756806 128.899954,48.4476538 C130.837714,50.8391308 133.745037,52.2319098 136.700155,52.9606895 C135.562626,53.5221197 134.228453,53.7043147 133.338094,54.6274356 C131.676181,56.4412872 134.913975,52.1441863 132.662131,55.7138572 C131.483634,54.6611754 130.459448,53.4492418 129.220866,52.4613404 C127.548029,51.1144476 125.682645,50.0104813 123.716208,49.1386449 C122.683828,48.6649381 121.521718,48.1588411 120.980948,47.1075089 C120.578102,46.0791198 120.489339,44.9643568 120.389651,43.8779353 C116.585142,42.039791 112.626321,40.5390447 108.686619,39.0167049 C103.871579,37.2743816 98.9677769,35.4915706 93.8099761,35.1271807 C88.8174107,34.646726 83.7374481,36.6562685 80.2524845,40.1746548 C75.9590968,44.3786339 74.1319489,50.9214559 75.77884,56.686913 C77.0529274,61.9948583 81.1524026,66.5335363 86.3484396,68.3784285 C88.5989177,69.2084276 91.0118999,69.5188338 93.4043985,69.5053379 C103.304863,69.4999395 113.284532,70.6767837 122.716602,73.7376584 C127.855285,75.4408435 132.824635,77.7918328 137.094808,81.1226258 C138.945171,82.6557624 140.829673,84.1781021 142.312694,86.0823765 C144.821267,89.2242266 146.82321,92.8559787 147.616612,96.8075841 C146.715329,95.1016998 146.062581,93.2716531 145.030201,91.634598 C143.039184,88.2457724 140.336698,85.3023123 137.265506,82.8433556 C134.156077,80.6300248 130.691597,78.9403356 127.089194,77.6663207 C123.723035,76.504322 120.272211,75.4880792 116.727162,75.0373155 C121.376967,77.3977519 125.443668,80.7865774 128.777052,84.7516787 C131.060304,87.2227817 132.869699,90.07312 134.520687,92.9828404 C135.919042,95.4067076 137.038819,97.9749812 138.028866,100.585092 C138.352508,101.467725 138.708925,102.363854 138.708925,103.320715 C138.277401,102.604082 137.998823,101.81457 137.68747,101.043953 C135.562626,95.9343981 132.780937,91.0461759 129.078846,86.8853837 C126.354511,83.4250298 122.746645,80.7447401 118.929845,78.5637994 C111.660855,74.4556413 103.038575,73.1451875 94.7645175,73.8024388 C87.8983745,74.5852022 80.8547059,71.6322949 76.3291693,66.537585 C74.0732289,64.0408398 72.412682,61.0339488 71.4827211,57.8178711 C70.6265016,54.2239076 70.4175677,50.4140094 71.4076141,46.822745 C72.2187695,43.3124562 74.1182931,40.1152728 76.5544902,37.4646741 C78.2655637,35.6724159 80.2197106,34.0623526 82.4824789,32.9961749 C80.3562687,29.4413496 78.8568604,25.5558742 77.6756325,21.6042688 C77.0474651,19.4935069 76.7743488,17.3004199 76.2581591,15.1640158 C76.1857833,14.8144714 75.7815712,14.7334959 75.5248419,14.5634473 C73.537921,13.5795948 71.5387099,12.6132869 69.4930691,11.7535968 C68.1247566,11.1381828 66.6349073,10.8723132 65.2570358,10.2798423 C63.0038265,9.622591 60.7806601,8.86546988 58.5015048,8.29459246 C57.1372891,7.94774732 55.8577394,7.34582928 54.4853301,7.02597598 C51.6503832,6.3133914 48.8386512,5.45100211 45.9313286,5.07581553 C30.8785254,1.87593289 15.4665743,0.634308242 0.0955906942,0.360341065" id="path5"></path>
                                <path d="M19.7995639,19.5582873 C38.1966758,16.618876 56.8737319,15.7767305 75.4893368,15.9319336 C75.7010019,17.0669405 75.9659247,18.1925002 76.2240195,19.31806 C68.5043882,18.5528413 60.7383271,18.3085651 52.9831906,18.3598496 C37.0632433,18.7080444 21.1815323,20.1858476 5.4172612,22.3762354 C10.131248,21.0860255 14.9804274,20.3558962 19.7995639,19.5582873 Z" id="path7"></path>
                                <path d="M45.9804895,27.6126524 C55.9505989,24.3506885 66.2279641,21.8890327 76.7006074,20.9159769 C76.9327563,22.010496 77.2577646,23.0820721 77.5964288,24.1495993 C59.9367308,25.0430292 42.6580301,29.6802274 26.35572,36.3067241 C23.8485126,37.2878775 21.4341648,38.4809168 18.9570002,39.5308994 C21.152855,38.1651123 23.4934615,37.0476501 25.8081218,35.8977977 C32.3260416,32.674972 39.0884004,29.9487962 45.9804895,27.6126524 Z" id="path9"></path>
                                <path d="M97.467003,24.3142496 C101.810917,25.354785 105.949994,27.1321977 109.908815,29.1633336 C114.606414,31.5912497 118.95306,34.6845145 122.738451,38.3554048 C123.48679,39.1300706 124.448159,39.7481837 124.975274,40.7090932 C124.506879,40.6375649 123.904658,40.9385239 123.540048,40.544443 C122.153983,38.8223636 120.55079,37.273032 118.836985,35.8681067 C114.098418,32.0163711 108.715297,28.9986834 103.105488,26.5748162 C101.268781,25.7191748 99.3160001,25.1361511 97.467003,24.3142496 Z" id="path11"></path>
                            </g>
                            <g id="#ffcb17ff" transform="translate(126.131921, 45.211332)" fill="#000000" fill-rule="nonzero">
                                <path d="M0.00819348807,0.10796736 C2.53597878,2.71080805 -0.0663317483,0.0124702301 2.31982091,2.48640329 C2.3861909,2.55521493 2.3647103,2.50871339 2.27369294,2.73022463 C1.50623622,2.42791602 0.763359972,2.06892454 0.0150213948,1.73152654 C0.00955906942,1.18899056 0.00682790673,0.647804162 0.00819348807,0.10796736 Z" id="path14"></path>
                            </g>
                            <g id="#454d4cff-6" transform="translate(99.233382, 69.636923)" fill="#000000" fill-rule="nonzero">
                                <path d="M0.0786214246,0.0534013313 C4.54270685,0.344913204 9.06609455,0.693690291 13.4605353,1.54393325 C15.956818,2.0432823 18.4367137,2.62495645 20.9166095,3.19583387 C24.1912735,4.28900339 27.4427227,5.47259558 30.5985812,6.86942331 C37.1110386,9.93974512 42.909297,14.8185202 46.2809174,21.1953424 C47.3774792,23.4221692 48.3839127,25.758313 48.6215238,28.2510094 C47.9400987,26.8177427 47.4348336,25.3061997 46.6837639,23.9039736 C45.6022235,21.8552929 44.3977807,19.8497992 42.8847166,18.0818337 C38.3468898,12.5674008 31.685584,9.24200605 24.9095693,7.2257156 C22.6181238,6.60625287 20.3444309,5.88422114 17.9847063,5.55761988 C20.1955825,6.71422023 22.3095024,8.06381223 24.2185852,9.66712753 C25.00516,10.327078 25.7453051,11.0423618 26.5332455,11.7009627 C27.4468195,12.4634822 28.1514594,13.42979 28.9667115,14.2894802 C31.1256956,16.6283231 32.9159728,19.2694746 34.5751541,21.9700083 C36.8024173,25.5842156 38.4192656,29.5263739 39.8326423,33.5090199 C40.9838273,36.7696342 41.5846831,40.1814028 42.0626366,43.5918218 L41.9219817,43.5918218 C40.8622906,38.7535344 39.4734944,33.9557348 37.393714,29.4413496 C35.1323113,24.2940057 31.9819151,19.5191492 28.0626967,15.4541781 C24.4534652,11.8629137 20.1573462,8.9302503 15.3982953,7.03677271 C10.6310508,4.8787751 5.27621822,4.18489991 0.0979336617,3.91093274 L0.0786214246,0.0534013313 Z" id="path2918"></path>
                            </g>
                        </g>
                    </g>
                </g>
                <ellipse id="Oval-15" stroke="#505050" fill="#FFFFFF" fill-rule="nonzero" cx="32.5" cy="6" rx="29.5" ry="6"></ellipse>
                <ellipse id="Oval-16" fill="#573619" fill-rule="nonzero" cx="34" cy="7" rx="25" ry="3"></ellipse>
            </g>
        </g>
        <polyline id="Line-9" stroke="#E6E6E6" stroke-linecap="square" fill-rule="nonzero" points="1032.5 454 1028 463.6875 1036 475.3125 1032.5 485"></polyline>
        <polyline id="Line-9-Copy" stroke="#E6E6E6" stroke-linecap="square" fill-rule="nonzero" points="1043.5 454 1039 463.6875 1047 475.3125 1043.5 485"></polyline>
        <polyline id="Line-9-Copy-2" stroke="#E6E6E6" stroke-linecap="square" fill-rule="nonzero" points="1056.5 454 1052 463.6875 1060 475.3125 1056.5 485"></polyline>
        <path d="M220.748517,472.242354 C223.751747,420.54744 223.749135,384.083823 220.748846,362.891365 C219.287121,352.566517 217.195538,346.645715 214.770954,345.284235 C212.698155,344.120294 209.666918,346.679685 205.852404,353.566952 L201.083196,424.778178 L201.036815,424.90853 C188.683982,459.625981 185.854709,486.001014 192.476129,503.998499 C195.6128,512.524192 198.975715,514.05219 203.401084,509.376718 C208.292254,504.209121 214.104527,491.802265 220.748517,472.242357 Z" id="Rectangle-7" stroke="#4A8901" stroke-width="2" fill="#90D474" fill-rule="nonzero" transform="translate(206.000000, 428.500000) scale(1, -1) translate(-206.000000, -428.500000) "></path>
        <path d="M213.0072,404.915685 C222.033785,445.495999 229.297857,475.220838 234.796441,494.081185 C237.53937,503.489534 239.840077,510.182562 241.686156,514.137854 C242.570122,516.031783 243.337632,517.264065 243.928289,517.797367 C244.215611,518.056789 244.117336,518.062305 244.251899,517.868118 C247.01837,513.875833 249.002612,490.07123 249.997872,447.352295 C241.120417,399.180733 235.203046,364.394529 232.244811,342.985782 C230.810539,332.605954 228.756286,326.647966 226.380704,325.281232 C224.37263,324.125934 221.406636,326.692531 217.668279,333.609215 L213.0072,404.915685 Z" id="Rectangle-7-Copy" stroke="#4A8901" stroke-width="2" fill="#90D474" fill-rule="nonzero" transform="translate(231.500000, 421.500000) scale(1, -1) translate(-231.500000, -421.500000) "></path>
        <path d="M174.042623,500.140011 C194.651916,505.673776 209.804373,508.440658 219.499996,508.440658 C229.195635,508.440658 244.348296,505.673766 264.957977,500.139981 L264.957975,500.139976 C267.091546,499.567103 269.285552,500.832299 269.858425,502.96587 C270.005022,503.511847 270.034225,504.082698 269.944108,504.640785 L257.995532,578.637637 C257.68261,580.575544 256.00969,582 254.046682,582 L184.953905,582 C182.990896,582 181.317976,580.575544 181.005054,578.637637 L169.056484,504.640809 C168.704326,502.45992 170.186807,500.40648 172.367695,500.054323 C172.925787,499.964206 173.496642,499.99341 174.042623,500.140011 Z" id="Rectangle-6" fill="#000000" fill-rule="nonzero"></path>
        <path d="M223.5,2 L223.5,152.5" id="Line-6" stroke="#4A4A4A" stroke-width="2" stroke-linecap="square" fill-rule="nonzero"></path>
        <ellipse id="Oval-12" stroke="#A79E2F" stroke-width="2" fill="#FFFBC8" fill-rule="nonzero" cx="224" cy="167" rx="15" ry="14"></ellipse>
        <g id="Group-3" transform="translate(430.000000, 116.000000)">
            <g id="Group-2">
                <path d="M396.122647,345.844481 C414.070663,322.064891 421.906074,304.87285 421.906074,283.289863 C421.906074,282.24268 421.913275,281.657107 421.953148,278.987513 C422.088832,269.903321 421.940504,264.60804 421.091943,258.543982 C418.713183,241.544693 411.40269,231.095882 396.774559,228.933133 C358.808188,223.319858 332.211581,220.006769 317.003001,218.994738 C288.20058,217.078127 264.272715,217.955255 238.411892,220.797881 C234.27576,221.252525 222.55292,222.65726 221.9598,222.725058 C216.633133,223.333934 213.309741,223.607736 210.675089,223.607736 C193.216466,223.607736 147.633391,241.846267 129.365993,254.691559 C118.207519,262.537989 112.106987,270.289371 109.937825,278.598696 C108.580743,283.797219 108.724446,289.243201 110.168675,295.623414 C111.240635,300.359045 111.916674,302.368413 116.061385,313.864918 C121.157957,328.00167 123.241308,336.352088 123.241308,346.446913 C123.241308,365.707639 176.229758,379.807435 245.025793,380.931471 C316.524958,382.099673 378.583782,369.08198 396.122647,345.844481 Z" id="Rectangle" stroke="#4C4E55" stroke-width="2" fill="#F7F7F7"></path>
                <path d="M212.818387,221.165675 C206.287945,221.752765 207.429692,237.422073 210.206072,243.374643 C212.982452,249.327213 223.154392,261.585027 229.721371,265.643715 C236.28835,269.702402 260.996366,274.941853 264.058526,276.58437 C267.120685,278.226887 267.969326,291.761902 269.793017,293.601229 C271.616707,295.440556 278.787946,290.787516 285.176109,282.315467 C291.564271,273.843417 289.223561,280.296631 298.670967,265.643715 C304.969238,255.875103 310.412249,238.993865 315,215 C251.232552,218.719056 217.172015,220.774281 212.818387,221.165675 Z" id="Path-5" fill="#CF9F82"></path>
                <path d="M264.000163,269 C286.7068,269 302.973696,244.63299 315.547827,217.402068 C320.450109,206.785537 323.065508,194.318416 326.459069,183.153984 C328.969276,174.895689 333,168.534206 333,158 C333,123.792237 327.380043,90.8215797 312.255956,70.4599616 C300.276222,54.3315983 280.843486,47 264.000163,47 C242.706779,47 217.445411,52.2039597 204.788337,76.5917203 C194.793766,95.8493488 195.000325,130.951047 195.000325,158 C195.000325,184.999194 205.117037,206.352122 215.078598,225.594627 C227.735476,250.043612 242.675848,269 264.000163,269 Z" id="Oval" fill="#CF9F82"></path>
                <path d="M197.11291,156.471579 C198.033869,155.378172 191.920331,150.798902 201.319648,171.254185 C210.718966,191.709469 218.41814,207.88285 222.283294,211.248677 C226.148447,214.614504 238.048613,195.966704 249.868001,194.925754 C261.687389,193.884804 268.480009,194.250979 274.659469,194.925754 C280.838929,195.600529 294.007173,197.390326 298.218622,200.973343 C302.430071,204.55636 300.321325,212.753695 304.022832,211.248677 C307.724338,209.743659 311.899441,197.589134 318.121827,176.248625 C324.344213,154.908116 327.461557,135.080569 329.122385,133.089075 C330.783214,131.09758 325.78424,163.119975 325.78424,167.060648 C325.78424,171.001322 332.311234,155.344225 329.122385,174.352742 C325.933537,193.361258 320.670399,206.650003 318.121827,212.735789 C315.573255,218.821576 310.950829,227.367604 305.591872,236.780145 C300.232916,246.192685 297.560717,248.495692 292.280155,254.468217 C286.999593,260.440742 273.517736,269 264.099372,269 C254.681007,269 241.361605,262.754451 234.588296,254.468217 C227.814986,246.181984 229.373258,248.76484 222.283294,236.780145 C215.19333,224.795449 214.003532,221.71979 209.439315,211.957019 C204.875098,202.194247 198.266675,185.976216 197.11291,176.248625 C195.959144,166.521034 196.19195,157.564985 197.11291,156.471579 Z" id="Path-4" fill="#19120F" opacity="0.887624547"></path>
                <path d="M195.297624,124.745652 L188,77.6901011 L211.473893,39.6165197 L252.983509,11 L300.81332,30.6734922 L331.341453,70.1820858 L335,88.757414 L335,156.75986 C332.715927,158.41338 331.496411,158.41338 331.341453,156.75986 C329.913099,141.518245 327.81622,125.472046 326.450409,119.990835 C325.084598,114.509625 319.516708,84.4639682 309.339545,70.1820858 C299.162383,55.9002035 283.714953,78.0761549 272.94651,74.8369635 C262.178067,71.5977721 216.375537,65.4006032 205.898981,82.0693143 C198.91461,93.1817884 196.62046,105.822295 199.01653,119.990835 L199.01653,151.862905 L195.297624,151.862905 L195.297624,124.745652 Z" id="Path-2" fill="#241813"></path>
                <ellipse id="Oval-2" fill="#A87E64" cx="230" cy="140" rx="14" ry="7"></ellipse>
                <ellipse id="Oval-2-Copy" fill="#A87E64" cx="293.5" cy="139" rx="12.5" ry="7"></ellipse>
                <ellipse id="Oval-2" fill="#D8D8D8" cx="230.5" cy="139.5" rx="12.5" ry="6.5"></ellipse>
                <circle id="Oval-8" fill="#4D2F14" opacity="0.811254529" cx="232.5" cy="139.5" r="5.5"></circle>
                <circle id="Oval-9" fill="#000000" cx="233" cy="139" r="2"></circle>
                <ellipse id="Oval-3" fill="#D8D8D8" cx="292.5" cy="138.5" rx="11.5" ry="5.5"></ellipse>
                <g id="Group" transform="translate(286.000000, 133.000000)">
                    <circle id="Oval-8" fill="#4D2F14" opacity="0.827105978" cx="5.42352192" cy="5.42352192" r="5.42352192"></circle>
                    <circle id="Oval-9" fill="#000000" cx="5.49391085" cy="5.95173675" r="2.28912952"></circle>
                </g>
                <path d="M212,129 L248,129 L248,135 C242.967737,133.842168 237.449884,132.762965 231.446441,131.762391 C222.441276,130.261531 219.679676,132.283995 215.919623,131.762391 C214.057784,131.504113 212.751243,130.583316 212,129 Z" id="Rectangle-2" fill="#4B372E"></path>
                <path d="M276,128 L312,128 L312,134 C306.967737,132.842168 301.449884,131.762965 295.446441,130.762391 C286.441276,129.261531 283.679676,131.283995 279.919623,130.762391 C278.057784,130.504113 276.751243,129.583316 276,128 Z" id="Rectangle-2-Copy" fill="#4B372E" transform="translate(294.000000, 131.000000) scale(-1, 1) translate(-294.000000, -131.000000) "></path>
                <path d="M325.379123,176 C326.96093,176 338.426937,166.063389 338.426937,153.232457 C338.426937,149.355689 341.19596,141.016648 340.988945,137.803333 C340.510802,130.381545 336.666699,130 335.562823,130 C333.981016,130 327.676808,140.169068 327.676808,153 C327.676808,165.830932 323.797317,176 325.379123,176 Z" id="Oval-6" stroke="#584236" stroke-width="2" fill="#CF9F82"></path>
                <path d="M199.549979,180 C202.812526,180 199.549979,167.600468 199.549979,153.866873 C199.549979,140.133278 196.905162,129 193.642616,129 C191.312007,129 185.644748,129.662861 185.01052,135.500148 C184.756911,137.8343 189.15989,149.948044 190.539931,154.5 C190.995488,156.002618 191.884892,167.073432 193.642616,172.517028 C195.75581,179.061502 198.800236,180 199.549979,180 Z" id="Oval-7" stroke="#584236" stroke-width="2" fill="#CF9F82"></path>
                <path d="M199.920237,157.349874 C200.174382,159.184946 211.915903,162.318435 223.984135,162.900059 C235.721284,163.465726 247.785072,161.533309 248.65896,159.543513 C252.315949,151.216746 254.635553,139.420314 258.010024,135.828483 C259.000163,134.774566 269.313093,135.104379 270.164485,135.828483 C274.525853,139.537804 273.907172,149.197074 278.148623,157.349874 C279.777601,160.48105 292.442921,161.732873 303.068717,160.723156 C316.233196,159.472201 324.55864,157.245277 325.729172,152.828528 C328.318033,143.060018 329.16629,124.715437 325.729172,124.462413 C317.298013,123.841752 292.138103,123.65339 276.102609,125.13911 C270.46315,125.661617 272.353337,130.142512 263.965414,131.021823 C257.597719,131.689353 256.65856,126.061488 248.65896,125.578048 C237.641134,124.912208 214.032386,124.855152 204.475076,125.578048 C198.837911,126.004432 198.021773,143.641906 199.920237,157.349874 Z" id="Path-3" stroke="#1B1416" stroke-width="4"></path>
                <rect id="Rectangle-3" fill="#1B1416" x="257" y="130" width="13" height="4"></rect>
                <polygon id="Path-6" fill="#1B1416" points="325 124 336 124 336 128.113019 327.718416 140"></polygon>
                <polygon id="Path-7" fill="#1B1416" points="194 122 200 125.319644 197 137 194.688706 132.294062"></polygon>
                <path d="M252,180 C252,186.075132 257.596441,191 264.5,191 C271.403559,191 277,186.075132 277,180" id="Oval-13" stroke="#936D55" stroke-width="3" stroke-linecap="round" stroke-linejoin="round"></path>
                <path d="M264,141 L252,180" id="Line" stroke="#936D55" stroke-width="3" stroke-linecap="round" stroke-linejoin="round"></path>
                <path d="M245.584071,235.826056 C252.036566,237.000686 255,232.016535 255,227.186848 C255,222.35716 250.378872,216.363839 245.626407,216.363839 C242.542938,216.363839 240.209126,214.899973 237.161728,215.005437 C236.35199,215.03346 235.01237,220.810246 237.161728,226.031795 C238.890421,230.231403 243.68927,235.481122 245.584071,235.826056 Z" id="Oval-11" fill="#CF9F82"></path>
                <path d="M287.188813,238 C292.202384,238 293,231.280988 293,226.5 C293,221.719012 286.58365,216.023986 281.57008,216.023986 C278.317203,216.023986 275.899832,214.902461 272.685007,215.006861 C271.143741,215.056914 272.685007,223.575431 272.685007,225.254445 C272.685007,226.933459 282.643353,238 287.188813,238 Z" id="Oval-11" fill="#CF9F82" transform="translate(282.500000, 226.500000) scale(-1, 1) translate(-282.500000, -226.500000) "></path>
                <path d="M292,215.169279 C292,214.292453 287.061128,217.125813 277.97914,216.752443 C274.155522,216.595251 269.088705,215.723672 264.5,215.723672 C258.403167,215.723672 252.588289,216.750551 247.987297,217.016368 C240.900264,217.425813 237,214.413779 237,215.169279 C237,215.434795 241.900543,218.174135 252.018365,218.530853 C255.599633,218.657115 259.44713,219 264.5,219 C269.587414,219 273.333957,218.804584 277.97914,218.530853 C285.100199,218.111223 292,215.447946 292,215.169279 Z" id="Oval-5" stroke="#987261" fill="#A87E6A"></path>
                <path d="M195.60345,226 C193.482343,229.00943 196.943442,255.046494 206.137238,264.941628 C215.331034,274.836762 243.267046,290.046435 258,294" id="Path-8" stroke="#4C4E55" stroke-width="2"></path>
                <path d="M287,291 C292.85148,289.911322 298.862169,285.265601 305.032068,277.062839 C314.286916,264.758695 313.936993,261.946877 317.724782,249.469838 C320.249975,241.151812 321.675048,231.328533 322,220" id="Line-2" stroke="#4C4E55" stroke-width="2" stroke-linecap="square"></path>
                <path d="M196.782209,245.218563 L126.217791,317.781437" id="Line-3" stroke="#4C4E55" stroke-width="2" stroke-linecap="square"></path>
                <path d="M313.221154,265.218085 L382,306" id="Line-4" stroke="#4C4E55" stroke-width="2" stroke-linecap="square"></path>
                <path d="M281,137 C283.076042,134.333333 286.200909,133 290.374603,133 C293.643939,133 297.343671,133.81812 301.473799,135.454359 C302.235444,135.756101 303.410844,136.271315 305,137" id="Line-7" stroke="#4B372E" stroke-linecap="square"></path>
                <path d="M219,137 C221.044896,134.333333 224.122882,133 228.23396,133 C233.201644,133 238.123657,133.98082 243,135.942459" id="Line-7-Copy" stroke="#4B372E" stroke-linecap="square" transform="translate(231.000000, 135.000000) scale(-1, 1) translate(-231.000000, -135.000000) "></path>
            </g>
            <g id="Rectangle-4" fill-rule="nonzero">
                <use fill="black" fill-opacity="1" filter="url(#filter-4)" xlink:href="#path-3"></use>
                <use fill="#333232" xlink:href="#path-3"></use>
            </g>
        </g>
        <g id="apple" transform="translate(683.000000, 470.000000)" fill="#000000" fill-rule="nonzero">
            <path d="M14.8973209,2.95876319 C17.0734038,0.0143545229 20.0986791,0 20.0986791,0 C20.0986791,0 20.5486836,2.7682446 18.3868555,5.43494631 C16.0785624,8.28239214 13.454869,7.81645661 13.454869,7.81645661 C13.454869,7.81645661 12.9622089,5.57703933 14.8973209,2.95876319 Z M13.73164,9.75560185 C14.851129,9.75560185 16.928843,8.17582237 19.6332772,8.17582237 C24.2884928,8.17582237 26.1198497,11.5763921 26.1198497,11.5763921 C26.1198497,11.5763921 22.5380399,13.4563877 22.5380399,18.0181099 C22.5380399,23.1641226 27,24.9376043 27,24.9376043 C27,24.9376043 23.8809261,33.9500664 19.6679348,33.9500664 C17.7329317,33.9500664 16.2285639,32.6114094 14.1897512,32.6114094 C12.1120372,32.6114094 10.0502101,34 8.70732386,34 C4.86022307,34.0001117 0,25.4508483 0,18.5786624 C0,11.8174028 4.11386082,8.27055105 7.972496,8.27055105 C10.4809543,8.27055105 12.4275463,9.75560185 13.73164,9.75560185 Z" id="Shape"></path>
        </g>
        <rect id="Rectangle-8" fill="#D8C1AF" fill-rule="nonzero" x="47" y="580" width="1326" height="26" rx="2"></rect>
        <path d="M49.5,580.5 L1367.5,580.5" id="Line-5" stroke="#8B572A" stroke-width="2" stroke-linecap="square" fill-rule="nonzero"></path>
        <ellipse id="Oval-14" stroke="#A79E2F" stroke-width="2" fill="#FFFBC8" fill-rule="nonzero" cx="224.5" cy="205" rx="37.5" ry="35"></ellipse>
        <path d="M216.5,171 L216.5,217.5" id="Line-8" stroke="#A79E2F" stroke-width="2" stroke-linecap="square" fill-rule="nonzero"></path>
        <path d="M232.25,173 L232.25,217.5" id="Line-8-Copy" stroke="#A79E2F" stroke-width="2" stroke-linecap="square" fill-rule="nonzero"></path>
    </g>
</svg>