<?xml version="1.0" standalone="no"?>
<!DOCTYPE svg PUBLIC "-//W3C//DTD SVG 20010904//EN"
 "http://www.w3.org/TR/2001/REC-SVG-20010904/DTD/svg10.dtd">
<svg version="1.0" xmlns="http://www.w3.org/2000/svg"
 width="1024.000000pt" height="1024.000000pt" viewBox="0 0 1024.000000 1024.000000"
 preserveAspectRatio="xMidYMid meet">
<metadata>
Created by potrace 1.11, written by Peter Selinger 2001-2013
</metadata>
<g transform="translate(0.000000,1024.000000) scale(0.100000,-0.100000)"
fill="#000000" stroke="none">
<path d="M0 5120 l0 -5120 5120 0 5120 0 0 5120 0 5120 -5120 0 -5120 0 0
-5120z m4698 615 c3 -776 -3 -944 -38 -1080 -74 -291 -260 -419 -631 -432
-215 -8 -410 31 -611 121 l-58 26 0 250 c0 137 2 250 5 250 2 0 32 -25 67 -56
82 -73 178 -129 286 -167 77 -28 100 -31 202 -32 104 0 120 3 170 26 98 46
139 106 159 229 7 40 11 286 11 643 l0 577 -270 0 -270 0 0 188 c0 104 3 192
7 195 3 4 223 6 487 5 l481 -3 3 -740z m1612 717 c298 -66 450 -248 449 -537
0 -137 -37 -245 -111 -329 -46 -53 -155 -111 -237 -126 -30 -6 -56 -12 -58
-14 -2 -2 19 -6 48 -10 66 -9 152 -41 214 -81 98 -62 174 -176 206 -305 21
-84 18 -310 -5 -385 -72 -240 -252 -360 -591 -394 -59 -6 -290 -11 -512 -11
l-403 0 0 1111 0 1111 453 -5 c414 -4 460 -6 547 -25z m1930 -3512 l0 -80
-2945 0 -2945 0 0 80 0 80 2945 0 2945 0 0 -80z"/>
<path d="M5730 5875 l0 -256 218 3 c202 3 220 5 263 26 89 44 131 152 110 284
-14 84 -46 129 -118 165 -57 28 -61 28 -265 31 l-208 4 0 -257z"/>
<path d="M5730 4940 l0 -330 188 0 c319 0 408 35 457 176 23 67 23 213 0 287
-48 153 -160 197 -502 197 l-143 0 0 -330z"/>
</g>
</svg>
